<svg preserveAspectRatio="xMidYMid meet" id="comp-jimsmmposvgcontent" data-bbox="6.771 6 186.459 187.999" viewBox="6.771 6 186.459 187.999" height="200" width="200" xmlns="http://www.w3.org/2000/svg" data-type="color" role="img">
    <g>
        <path d="M192.26 71.766l-21.688-37.565a7.23 7.23 0 0 0-9.878-2.646L139.77 43.637c-4.821 2.783-10.846-.695-10.846-6.262V13.231A7.231 7.231 0 0 0 121.693 6H78.309a7.231 7.231 0 0 0-7.231 7.231v24.145c0 5.566-6.026 9.045-10.846 6.262L39.306 31.554a7.232 7.232 0 0 0-9.878 2.646L7.74 71.766a7.23 7.23 0 0 0 2.646 9.877l20.937 12.089c4.82 2.783 4.82 9.74 0 12.524l-20.937 12.089a7.23 7.23 0 0 0-2.646 9.877l21.689 37.565a7.23 7.23 0 0 0 9.878 2.646l20.925-12.083c4.821-2.783 10.846.695 10.846 6.262v24.156a7.231 7.231 0 0 0 7.231 7.231h43.385a7.231 7.231 0 0 0 7.231-7.231v-24.155c0-5.566 6.026-9.045 10.846-6.262l20.924 12.082a7.232 7.232 0 0 0 9.878-2.646l21.688-37.565a7.23 7.23 0 0 0-2.646-9.877l-20.937-12.089c-4.82-2.783-4.82-9.741 0-12.524l20.937-12.089a7.23 7.23 0 0 0 2.645-9.877z" fill="#2751A3" data-color="1"></path>
        <path d="M126.195 89.041l-15.212-.006V73.799a10.97 10.97 0 0 0-3.213-7.74v-.001c-6.908-6.908-18.719-2.022-18.728 7.746l-.006 15.221-6.62-.003v-.006H73.8a10.975 10.975 0 0 0-7.74 3.213c-6.908 6.908-2.022 18.719 7.746 18.727l2.708.017v.006h12.513l-.003 6.602h-.006v8.616a10.973 10.973 0 0 0 3.213 7.74c6.908 6.908 18.719 2.022 18.728-7.746l.017-2.708h.006v-12.505H126.2a10.97 10.97 0 0 0 7.74-3.213h.001c6.908-6.904 2.022-18.715-7.746-18.724z" fill="#FFFFFF" data-color="2"></path>
    </g>
</svg>